<svg width="122" height="36" viewBox="0 0 122 36" fill="none" xmlns="http://www.w3.org/2000/svg">
<path d="M43.0577 18.979C43.0577 19.7169 43.1992 20.3502 43.482 20.879C43.7649 21.4078 44.1768 21.8198 44.7179 22.1149C45.2713 22.3978 45.9354 22.5392 46.7101 22.5392C47.4971 22.5392 48.1612 22.3978 48.7023 22.1149C49.2434 21.8198 49.6554 21.4078 49.9382 20.879C50.221 20.3502 50.3625 19.7169 50.3625 18.979V11.2132H53.4983V19.1266C53.4983 20.3687 53.2155 21.457 52.6498 22.3916C52.0841 23.3139 51.2909 24.0333 50.2702 24.5498C49.2495 25.0663 48.0628 25.3246 46.7101 25.3246C45.3574 25.3246 44.1707 25.0663 43.15 24.5498C42.1416 24.0333 41.3484 23.3139 40.7704 22.3916C40.2047 21.457 39.9219 20.3687 39.9219 19.1266V11.2132H43.0577V18.979Z" fill="white"/>
<path d="M55.2932 25.0479V22.8712L63.0038 16.2859L65.0698 16.8393H55.3486V14.5519H66.2503V16.7286L58.5398 23.3139L56.769 22.779H66.2872V25.0479H55.2932Z" fill="white"/>
<path d="M67.65 14.5519H70.7305L71.3945 18.5548V25.0479H68.314V18.0936L67.65 14.5519ZM75.1391 14.2752C76.0737 14.2752 76.8731 14.4782 77.5372 14.884C78.2012 15.2775 78.7054 15.8432 79.0498 16.581C79.4064 17.3189 79.5847 18.1982 79.5847 19.2189V25.0479H76.5042V19.68C76.5042 18.7331 76.2951 18.0198 75.877 17.5402C75.4712 17.0483 74.8747 16.8024 74.0877 16.8024C73.5343 16.8024 73.0547 16.9377 72.6489 17.2082C72.2431 17.4665 71.9295 17.8292 71.7081 18.2965C71.4991 18.7638 71.3945 19.3234 71.3945 19.9751L70.38 19.4402C70.503 18.3334 70.7858 17.3988 71.2285 16.6364C71.6712 15.8739 72.2246 15.2898 72.8887 14.884C73.5651 14.4782 74.3152 14.2752 75.1391 14.2752ZM83.3108 14.2752C84.2455 14.2752 85.0448 14.4782 85.7089 14.884C86.3852 15.2775 86.8956 15.8432 87.2399 16.581C87.5965 17.3189 87.7748 18.1982 87.7748 19.2189V25.0479H84.6943V19.68C84.6943 18.7331 84.4853 18.0198 84.0671 17.5402C83.6613 17.0483 83.0649 16.8024 82.2779 16.8024C81.7245 16.8024 81.2449 16.9377 80.839 17.2082C80.4332 17.4665 80.1196 17.8292 79.8983 18.2965C79.6892 18.7638 79.5847 19.3234 79.5847 19.9751L78.5701 19.4402C78.6931 18.3334 78.976 17.3988 79.4187 16.6364C79.8614 15.8739 80.4148 15.2898 81.0788 14.884C81.7552 14.4782 82.4992 14.2752 83.3108 14.2752Z" fill="white"/>
<path d="M94.3904 25.3246C93.4189 25.3246 92.5888 25.1278 91.9002 24.7343C91.2238 24.3285 90.7012 23.7566 90.3322 23.0188C89.9756 22.2809 89.7973 21.4078 89.7973 20.3994V14.5519H92.8778V19.9383C92.8778 20.8729 93.0992 21.5861 93.5419 22.078C93.9846 22.5576 94.6118 22.7974 95.4234 22.7974C96.026 22.7974 96.5363 22.6745 96.9545 22.4285C97.3849 22.1703 97.7169 21.8013 97.9506 21.3217C98.1842 20.8421 98.301 20.2826 98.301 19.6431L99.2971 20.1781C99.1742 21.2602 98.8852 22.1887 98.4302 22.9634C97.9752 23.7259 97.3972 24.31 96.6962 24.7158C96.0075 25.1217 95.239 25.3246 94.3904 25.3246ZM98.9467 25.0479L98.301 21.0635V14.5519H101.382V21.5246L102.027 25.0479H98.9467Z" fill="white"/>
<path d="M103.852 10.8442H106.932V25.0479H103.852V10.8442Z" fill="white"/>
<path d="M112.336 22.5023L111.469 22.1887L117.704 14.5519H121.061L112.06 25.0479H109.256V10.8442H112.336V22.5023ZM114.716 19.9014L116.985 18.149L121.357 25.0479H117.833L114.716 19.9014Z" fill="white"/>
<path d="M24.4634 25.304C22.5025 30.024 17.8761 34.2304 16.0913 35.7336C15.6704 36.0882 15.0728 36.0882 14.6519 35.7336C12.8668 34.2301 8.24156 30.0237 6.28076 25.304H24.4634Z" fill="white"/>
<path fill-rule="evenodd" clip-rule="evenodd" d="M14.6338 0.250472C15.0694 -0.0834908 15.6747 -0.0834908 16.1104 0.250472L30.1104 10.9839C30.5094 11.29 30.744 11.7641 30.7441 12.2671V23.686C30.744 24.5795 30.0194 25.304 29.126 25.3042H24.4629C25.0202 23.9627 25.3631 22.5798 25.3633 21.2056C25.3633 15.6874 20.8901 11.2136 15.3721 11.2134C9.85387 11.2135 5.37988 15.6873 5.37988 21.2056C5.38001 22.5798 5.72298 23.9627 6.28027 25.3042H1.61816C0.724592 25.3042 0.000119257 24.5796 0 23.686V12.2671C0.000146346 11.764 0.234562 11.29 0.633789 10.9839L14.6338 0.250472Z" fill="white"/>
<circle cx="15.3718" cy="19.6675" r="2.56198" fill="white"/>
</svg>
