<svg width="131" height="40" viewBox="0 0 131 40" fill="none" xmlns="http://www.w3.org/2000/svg">
<path d="M44.7578 20.2148C44.7578 21.0204 44.9122 21.7119 45.221 22.2892C45.5298 22.8666 45.9796 23.3164 46.5704 23.6386C47.1746 23.9474 47.8997 24.1019 48.7455 24.1019C49.6049 24.1019 50.3299 23.9474 50.9207 23.6386C51.5115 23.3164 51.9613 22.8666 52.2701 22.2892C52.5789 21.7119 52.7333 21.0204 52.7333 20.2148V11.7358H56.1571V20.3759C56.1571 21.732 55.8483 22.9203 55.2307 23.9407C54.613 24.9477 53.747 25.7332 52.6326 26.2971C51.5182 26.8611 50.2225 27.143 48.7455 27.143C47.2686 27.143 45.9729 26.8611 44.8585 26.2971C43.7575 25.7332 42.8915 24.9477 42.2604 23.9407C41.6428 22.9203 41.334 21.732 41.334 20.3759V11.7358H44.7578V20.2148Z" fill="#000B43"/>
<path d="M58.1168 26.8409V24.4644L66.5354 17.2743L68.7911 17.8786H58.1773V15.3812H70.0801V17.7577L61.6615 24.9477L59.728 24.3637H70.1203V26.8409H58.1168Z" fill="#000B43"/>
<path d="M71.6082 15.3812H74.9716L75.6966 19.7516V26.8409H72.3332V19.2481L71.6082 15.3812ZM79.7851 15.0791C80.8055 15.0791 81.6783 15.3006 82.4033 15.7437C83.1283 16.1734 83.6788 16.791 84.0548 17.5966C84.4442 18.4022 84.6388 19.3622 84.6388 20.4766V26.8409H81.2755V20.9801C81.2755 19.9463 81.0472 19.1675 80.5907 18.6439C80.1476 18.1068 79.4964 17.8383 78.6371 17.8383C78.0329 17.8383 77.5093 17.986 77.0662 18.2814C76.6231 18.5633 76.2807 18.9594 76.039 19.4696C75.8108 19.9798 75.6966 20.5908 75.6966 21.3024L74.5889 20.7183C74.7232 19.5099 75.032 18.4895 75.5154 17.657C75.9987 16.8246 76.6029 16.1868 77.328 15.7437C78.0665 15.3006 78.8855 15.0791 79.7851 15.0791ZM88.7072 15.0791C89.7276 15.0791 90.6003 15.3006 91.3254 15.7437C92.0638 16.1734 92.621 16.791 92.997 17.5966C93.3864 18.4022 93.5811 19.3622 93.5811 20.4766V26.8409H90.2177V20.9801C90.2177 19.9463 89.9894 19.1675 89.5329 18.6439C89.0898 18.1068 88.4386 17.8383 87.5793 17.8383C86.9751 17.8383 86.4515 17.986 86.0084 18.2814C85.5653 18.5633 85.2229 18.9594 84.9812 19.4696C84.753 19.9798 84.6388 20.5908 84.6388 21.3024L83.5311 20.7183C83.6654 19.5099 83.9742 18.4895 84.4576 17.657C84.941 16.8246 85.5452 16.1868 86.2702 15.7437C87.0087 15.3006 87.821 15.0791 88.7072 15.0791Z" fill="#000B43"/>
<path d="M100.804 27.143C99.7434 27.143 98.8371 26.9282 98.0852 26.4985C97.3467 26.0554 96.7761 25.4311 96.3733 24.6255C95.9839 23.8199 95.7892 22.8666 95.7892 21.7656V15.3812H99.1526V21.2621C99.1526 22.2825 99.3943 23.0613 99.8777 23.5983C100.361 24.122 101.046 24.3838 101.932 24.3838C102.59 24.3838 103.147 24.2495 103.604 23.981C104.074 23.6991 104.436 23.2962 104.691 22.7726C104.946 22.249 105.074 21.638 105.074 20.9399L106.161 21.5239C106.027 22.7055 105.712 23.7192 105.215 24.5651C104.718 25.3975 104.087 26.0353 103.322 26.4784C102.57 26.9215 101.731 27.143 100.804 27.143ZM105.779 26.8409L105.074 22.4906V15.3812H108.437V22.9941L109.142 26.8409H105.779Z" fill="#000B43"/>
<path d="M111.134 11.333H114.498V26.8409H111.134V11.333Z" fill="#000B43"/>
<path d="M120.398 24.0616L119.451 23.7192L126.259 15.3812H129.924L120.096 26.8409H117.035V11.333H120.398V24.0616ZM122.996 21.2218L125.473 19.3085L130.246 26.8409H126.4L122.996 21.2218Z" fill="#000B43"/>
<path d="M0 14.2337C0 13.3723 0.400786 12.56 1.08434 12.036L15.6602 0.861168C16.3228 0.353121 17.244 0.35312 17.9067 0.861167L32.4825 12.036C33.1661 12.56 33.5669 13.3723 33.5669 14.2337V25.9889C33.5669 27.0844 32.6788 27.9724 31.5834 27.9724H1.98347C0.888028 27.9724 0 27.0844 0 25.9889V14.2337Z" fill="#0076FE"/>
<path d="M27.6925 23.4962C27.6925 30.193 20.2574 37.0806 17.6634 39.2798C17.1488 39.716 16.4177 39.716 15.9031 39.2798C13.3091 37.0806 5.87402 30.193 5.87402 23.4962C5.87402 17.4711 10.7583 12.5869 16.7833 12.5869C22.8083 12.5869 27.6925 17.4711 27.6925 23.4962Z" fill="#01CAFE"/>
<path fill-rule="evenodd" clip-rule="evenodd" d="M26.7095 27.9728H6.85508C6.24644 26.5078 5.87305 24.9974 5.87305 23.4966C5.87305 17.4716 10.7573 12.5874 16.7823 12.5874C22.8073 12.5874 27.6915 17.4716 27.6915 23.4966C27.6915 24.9974 27.3181 26.5078 26.7095 27.9728Z" fill="#172AB4"/>
<ellipse cx="16.7838" cy="21.8177" rx="2.79724" ry="2.79724" fill="white"/>
</svg>
